<?xml version="1.0" standalone="no"?>
<!DOCTYPE svg PUBLIC "-//W3C//DTD SVG 20010904//EN"
 "http://www.w3.org/TR/2001/REC-SVG-20010904/DTD/svg10.dtd">
<svg version="1.0" xmlns="http://www.w3.org/2000/svg"
 width="485.000000pt" height="485.000000pt" viewBox="0 0 485.000000 485.000000"
 preserveAspectRatio="xMidYMid meet">
<metadata>
Created by potrace 1.14, written by Peter Selinger 2001-2017
</metadata>
<g transform="translate(0.000000,485.000000) scale(0.100000,-0.100000)"
fill="#000000" stroke="none">
<path d="M565 3416 c-27 -7 -68 -21 -90 -31 -94 -45 -204 -207 -191 -281 8
-38 38 -64 77 -64 32 0 43 12 90 99 48 90 97 124 185 129 35 3 85 -1 109 -8
125 -35 209 -194 157 -297 -26 -49 -81 -99 -141 -127 -38 -17 -74 -21 -196
-26 -157 -6 -190 -15 -243 -64 -56 -50 -56 -45 -57 -526 -2 -482 -1 -486 53
-544 57 -61 82 -66 353 -66 245 0 245 0 298 26 34 17 62 41 79 67 l27 41 0
635 c0 350 -3 665 -7 700 -28 236 -266 395 -503 337z"/>
<path d="M2015 3031 c-55 -15 -83 -29 -120 -62 -92 -81 -118 -227 -61 -342
100 -205 411 -189 501 25 58 139 2 302 -122 356 -55 23 -154 35 -198 23z m127
-31 c137 -39 195 -284 98 -419 -53 -73 -173 -92 -256 -40 -90 55 -136 201
-103 324 31 112 139 168 261 135z"/>
<path d="M2648 3027 c-60 -17 -106 -49 -141 -98 -144 -201 3 -473 240 -445
110 13 179 59 224 151 75 152 20 320 -124 380 -53 22 -144 27 -199 12z m162
-39 c110 -57 153 -196 108 -350 -38 -131 -216 -170 -321 -70 -100 95 -107 305
-13 392 60 55 151 66 226 28z"/>
<path d="M3186 3018 c-3 -13 -15 -117 -27 -233 -25 -250 -29 -267 -58 -281
-19 -10 -10 -12 56 -12 47 0 68 3 53 7 -23 7 -25 11 -25 71 0 95 16 283 25
299 6 11 9 9 15 -8 9 -30 106 -232 149 -311 l35 -65 72 150 c39 83 83 175 97
205 l25 55 8 -70 c9 -77 14 -128 24 -252 l8 -83 71 1 c61 1 66 2 39 10 -52 15
-50 6 -84 324 -11 110 -24 203 -28 207 -6 7 -62 -109 -193 -394 -12 -27 -24
-48 -27 -48 -4 0 -13 15 -20 33 -35 77 -202 417 -206 417 -3 0 -7 -10 -9 -22z"/>
<path d="M1300 3018 c13 -5 28 -14 32 -21 9 -14 11 -431 2 -463 -3 -12 -15
-26 -27 -32 -17 -8 0 -10 68 -10 86 -1 88 0 58 13 -32 14 -33 16 -34 75 -3
151 -7 142 48 138 47 -3 48 -3 121 -101 82 -110 109 -128 194 -126 52 1 52 1
18 11 -53 15 -83 41 -161 139 l-71 91 21 27 c71 86 78 173 18 227 -39 36 -78
44 -222 42 -68 0 -84 -2 -65 -10z m219 -34 c66 -47 66 -199 0 -234 -20 -11
-103 -9 -115 3 -5 4 -8 147 -5 220 1 26 4 27 49 27 28 0 57 -7 71 -16z"/>
<path d="M1591 2435 c-235 -43 -377 -227 -339 -438 27 -144 143 -255 319 -303
47 -13 103 -18 214 -18 181 0 228 11 244 55 18 51 25 129 12 129 -6 0 -11 -7
-11 -16 0 -30 -35 -76 -75 -97 -56 -29 -219 -36 -301 -12 -130 38 -220 108
-271 213 -23 48 -28 70 -28 137 0 51 7 99 18 131 21 60 84 129 141 155 106 46
296 49 404 6 63 -25 102 -70 102 -118 0 -16 5 -29 10 -29 6 0 10 19 10 43 0
23 3 65 6 93 l6 51 -89 12 c-129 19 -287 22 -372 6z"/>
<path d="M2527 2443 c-3 -4 -42 -91 -87 -193 -45 -102 -90 -203 -100 -225 -10
-22 -33 -76 -53 -120 -80 -184 -97 -205 -168 -205 -18 0 -29 -3 -26 -7 9 -9
258 -10 264 0 2 4 -7 7 -20 7 -57 0 -55 28 16 197 l33 78 135 3 136 3 56 -128
c61 -135 64 -148 45 -156 -13 -5 7 -7 143 -11 84 -3 121 8 60 18 -75 12 -83
25 -286 466 -113 248 -137 291 -148 273z m57 -292 c31 -74 55 -136 53 -138 -3
-2 -56 -2 -120 -1 l-115 3 56 143 c30 79 58 139 62 135 4 -4 32 -68 64 -142z"/>
<path d="M3094 2429 l-29 -7 30 -1 c17 0 41 -8 53 -17 22 -15 22 -16 22 -332
0 -345 -3 -364 -53 -370 -15 -2 -27 -6 -27 -10 0 -9 277 -8 286 1 4 4 -8 7
-27 7 -68 0 -74 12 -77 164 l-4 136 85 0 84 0 52 -62 c87 -104 194 -209 232
-229 41 -20 193 -34 230 -21 19 7 13 10 -30 15 -80 10 -134 47 -273 190 l-127
131 51 49 c59 58 87 115 88 175 0 97 -77 166 -197 178 -84 8 -334 10 -369 3z
m353 -44 c21 -9 46 -23 56 -33 80 -72 74 -242 -10 -297 -30 -20 -141 -27 -195
-12 l-28 7 0 169 c0 92 3 171 7 174 12 13 134 7 170 -8z"/>
<path d="M4000 2430 l-35 -6 42 -7 c27 -5 46 -14 53 -28 8 -14 10 -122 8 -340
-3 -304 -4 -321 -22 -335 -11 -8 -31 -14 -45 -14 -13 0 -22 -2 -19 -5 3 -3
111 -8 240 -11 269 -6 257 -9 264 83 4 58 4 58 -11 26 -26 -56 -56 -68 -168
-68 -137 0 -137 0 -137 195 l0 147 63 -2 c34 -2 80 -3 103 -4 48 -1 74 -18 77
-49 3 -43 15 -21 25 46 5 37 8 69 6 71 -2 2 -11 -2 -20 -10 -12 -10 -53 -15
-136 -18 l-119 -3 3 148 3 149 100 -3 c115 -4 149 -15 153 -55 4 -30 22 -38
23 -9 0 9 4 37 8 62 l7 45 -215 0 c-119 0 -232 -2 -251 -5z"/>
</g>
</svg>
